<svg xmlns="http://www.w3.org/2000/svg" viewBox="0 0 32 32">
  <defs>
    <linearGradient id="fg" x1="0" y1="0" x2="1" y2="1">
      <stop offset="0%" stop-color="#06b6d4"/>
      <stop offset="100%" stop-color="#8b5cf6"/>
    </linearGradient>
  </defs>
  <rect width="32" height="32" rx="7" fill="#080d1e"/>
  <!-- Laminar flow streams -->
  <path d="M5 9 C10 9, 12 7, 17 7 C22 7, 24 10, 27 10" stroke="url(#fg)" stroke-width="2" fill="none" stroke-linecap="round" opacity="0.5"/>
  <path d="M4 14 C9 14, 12 12, 17 12 C22 12, 24 15, 28 15" stroke="url(#fg)" stroke-width="2" fill="none" stroke-linecap="round" opacity="0.7"/>
  <path d="M3 19 C8 19, 12 17, 17 17 C22 17, 24 20, 29 20" stroke="url(#fg)" stroke-width="2.5" fill="none" stroke-linecap="round" opacity="1"/>
  <path d="M4 24 C9 24, 12 22, 17 22 C22 22, 24 25, 28 25" stroke="url(#fg)" stroke-width="2" fill="none" stroke-linecap="round" opacity="0.5"/>
</svg>
